<?xml version="1.0" encoding="UTF-8" standalone="no"?>
<svg
   width="500"
   height="500"
   version="1.1"
   id="svg1"
   xmlns="http://www.w3.org/2000/svg"
   xmlns:svg="http://www.w3.org/2000/svg">
  <defs
     id="defs1" />
  <circle
     fill="#993399"
     cx="249.5"
     cy="249.5"
     r="250"
     id="circle1" />
  <path
     fill="#ffffff"
     d="m 166.78925,281.94103 c -1.5e-4,8.027 -1.43245,15.19924 -4.29689,21.51671 -2.79961,6.31754 -6.67331,11.55735 -11.6211,15.71946 -5.72929,4.90537 -12.0444,8.39858 -18.94533,10.47964 -6.83605,2.08107 -15.52746,3.1216 -26.07425,3.1216 H 42.375048 V 166.77647 h 56.44537 c 11.718682,1.6e-4 20.279872,0.4461 25.683622,1.33782 5.46865,0.89205 10.8723,2.86163 16.21095,5.90873 5.53375,3.19608 9.63531,7.50686 12.3047,12.93233 2.73425,5.35145 4.10144,11.48314 4.10157,18.39512 -1.3e-4,8.02708 -1.8556,15.12498 -5.56641,21.29373 -3.71106,6.09465 -8.95194,10.85135 -15.72267,14.27015 v 0.89188 c 9.5051,2.15548 17.02463,6.6149 22.55862,13.37827 5.59882,6.76353 8.3983,15.68236 8.39845,26.75653 m -48.04693,-68.22915 c -1e-4,-2.74985 -0.61859,-5.49982 -1.85547,-8.24993 -1.17198,-2.74985 -3.28786,-4.79375 -6.34767,-6.13171 -2.73446,-1.18904 -6.15242,-1.82079 -10.25392,-1.89525 -4.03653,-0.14851 -9.733144,-0.22284 -17.089856,-0.22296 h -3.515628 v 35.11794 h 5.85938 c 5.924419,9e-5 10.969995,-0.11139 15.136734,-0.33446 4.16659,-0.22287 7.45435,-0.96611 9.86329,-2.22971 3.38534,-1.70934 5.59887,-3.90189 6.64063,-6.57765 1.04158,-2.74987 1.56241,-5.90861 1.56251,-9.47627 m 9.17969,67.56024 c -1e-4,-5.27693 -0.91156,-9.32757 -2.73438,-12.15193 -1.75791,-2.89855 -4.78525,-5.05394 -9.08203,-6.46616 -2.92979,-0.96614 -6.96624,-1.4864 -12.1094,-1.5608 -5.143305,-0.0743 -10.514397,-0.11141 -16.113291,-0.11148 h -8.203133 v 41.36113 h 2.734377 c 10.546818,4e-5 18.098907,-0.0372 22.656277,-0.11148 4.55721,-0.0743 8.75643,-1.0405 12.59766,-2.89863 3.90616,-1.85805 6.57544,-4.31073 8.00783,-7.35804 1.49729,-3.12155 2.24599,-6.68908 2.24609,-10.70261 m 194.14084,-8.58439 c -1.4e-4,20.51338 -5.46889,36.23283 -16.40626,47.15839 -10.93764,10.92558 -27.05092,16.38837 -48.3399,16.38837 -21.28915,0 -37.40243,-5.46279 -48.3399,-16.38837 -10.87243,-10.92556 -16.30863,-26.60785 -16.30861,-47.0469 V 166.77647 h 37.69535 v 103.57007 c -5e-5,11.52022 2.11583,20.1046 6.34766,25.75315 4.23171,5.64864 11.10021,8.47294 20.6055,8.4729 9.37491,4e-5 16.21085,-2.71278 20.50784,-8.13844 4.36186,-5.42559 6.54286,-14.12144 6.54296,-26.08761 V 166.77647 h 37.69536 v 105.91126 m 151.56268,7.91548 c -1.3e-4,16.35124 -6.08738,29.65517 -18.26174,39.91182 -12.10949,10.18235 -28.58085,15.27351 -49.41412,15.27351 -12.04433,0 -22.55865,-1.18917 -31.543,-3.56753 -8.9193,-2.45268 -17.28519,-5.53711 -25.09768,-9.2533 v -39.80034 h 4.10157 c 7.74738,7.06079 16.40623,12.48642 25.97659,16.27689 9.63537,3.79053 18.88017,5.68579 27.7344,5.68576 2.27858,3e-5 5.27337,-0.22294 8.98439,-0.66891 3.71086,-0.44591 6.7382,-1.18914 9.08204,-2.22971 2.8645,-1.3378 5.20825,-3.01008 7.03125,-5.01684 1.88793,-2.00672 2.83194,-4.97966 2.83204,-8.91885 -10e-5,-3.64181 -1.36729,-6.76341 -4.10157,-9.36478 -2.66936,-2.6756 -6.60817,-4.71951 -11.81642,-6.13171 -5.46882,-1.48642 -11.2631,-2.8614 -17.38282,-4.12497 -6.05475,-1.33776 -11.75137,-3.01004 -17.08987,-5.01685 -12.23963,-4.53366 -21.06124,-10.66536 -26.46487,-18.39511 -5.33856,-7.8039 -8.00783,-17.46597 -8.00782,-28.98624 -1e-5,-15.45919 6.05467,-28.05706 18.16408,-37.7936 12.17445,-9.81056 27.79945,-14.71592 46.87505,-14.7161 9.57023,1.8e-4 19.01034,1.07787 28.32034,3.23309 9.3749,2.08123 17.48037,4.71971 24.31644,7.91547 v 38.23954 h -4.00392 c -5.8595,-5.35118 -13.0535,-9.8106 -21.58205,-13.37827 -8.46365,-3.64172 -17.1225,-5.46265 -25.97659,-5.46279 -3.12508,1.4e-4 -6.25008,0.26028 -9.37501,0.78041 -3.05996,0.44607 -6.0222,1.33796 -8.88672,2.67565 -2.53913,1.11499 -4.72012,2.82443 -6.54298,5.12833 -1.82298,2.22984 -2.73443,4.79401 -2.73438,7.6925 -5e-5,4.38523 1.4648,7.76695 4.39453,10.14519 2.92963,2.30415 8.46349,4.42237 16.60159,6.35467 5.33847,1.26361 10.44914,2.48995 15.33204,3.67903 4.94783,1.18928 10.25382,2.82439 15.91799,4.90536 11.13271,4.16223 19.33584,9.84798 24.6094,17.05729 5.33841,7.13515 8.00769,16.4256 8.00782,27.87139"
     id="path1" />
</svg>
