<?xml version="1.0" encoding="UTF-8" standalone="no"?>
<!-- Created with Inkscape (http://www.inkscape.org/) -->

<svg
   width="108.15374mm"
   height="171.47426mm"
   viewBox="0 0 108.15374 171.47426"
   version="1.1"
   id="svg1"
   xml:space="preserve"
   xmlns="http://www.w3.org/2000/svg"
   xmlns:svg="http://www.w3.org/2000/svg"><defs
     id="defs1" /><g
     id="layer1"><path
       id="path3"
       style="fill:#ffffff"
       d="M 50.130403,0.07650728 C 44.734533,0.43690728 39.893966,1.3510945 35.184546,2.8990745 17.508496,8.7091952 5.2728005,22.73352 1.3783405,41.647605 0.36768048,46.556032 0.00313048,50.251089 1.304838e-4,55.630726 -0.00196952,58.937633 0.01945048,59.515913 0.19908448,60.990083 1.1777445,69.021317 3.6543775,77.705714 8.1841275,88.991458 15.970607,108.39125 29.933504,134.18633 47.225154,161.11676 c 2.86547,4.46275 6.765566,10.3515 6.860566,10.3575 0.03015,0.002 1.0195,-1.45362 2.19883,-3.23442 9.027344,-13.63134 18.062854,-28.48351 25.497664,-41.91269 14.42065,-26.04741 23.166116,-47.108739 25.659406,-61.79361 0.63833,-3.759837 0.7128,-4.689437 0.71211,-8.902814 -6.5e-4,-3.958227 -0.0881,-5.502237 -0.49248,-8.708504 C 106.47293,37.500065 103.40663,29.019601 98.666974,22.046741 89.808264,9.0140782 75.567604,1.2719925 58.273577,0.08684228 c -1.616967,-0.11085 -6.546499,-0.116975 -8.143174,-0.01033 z M 53.97513,10.583359 A 42.862499,42.862499 0 0 1 96.837624,53.445846 42.862499,42.862499 0 0 1 53.97513,96.308322 42.862499,42.862499 0 0 1 11.11263,53.445846 42.862499,42.862499 0 0 1 53.97513,10.583359 Z" /><g
       id="g4"
       transform="translate(-61.020006,4.0569482)"
       style="stroke:#ffffff;stroke-width:2.5;stroke-dasharray:none"><path
         style="fill:none;stroke:#ffffff;stroke-width:2.5;stroke-linecap:round;stroke-linejoin:round;stroke-dasharray:none"
         d="M 139.57194,59.94305 H 82.468075 c 0,0 9.682829,-30.16574 31.903685,-29.793324 h 25.57263"
         id="path1" /><path
         style="fill:none;stroke:#ffffff;stroke-width:2.5;stroke-linejoin:round;stroke-dasharray:none"
         d="m 103.79357,32.046652 c 7.41445,4.39787 0.19011,10.99467 -2.6616,12.408271 -2.851708,1.413597 -10.836494,0 -10.836494,0"
         id="path2" /></g></g></svg>
